HIERARCHY
ROOT Hips
{
  OFFSET -0.209685 96.8144 0.798002
  CHANNELS 6 Xposition Yposition Zposition Zrotation Xrotation Yrotation
  JOINT Spine
  {
    OFFSET 0 10.1816 0.1315
    CHANNELS 3 Zrotation Xrotation Yrotation
    JOINT Spine1
    {
      OFFSET 0 10.0835 -1.0008
      CHANNELS 3 Zrotation Xrotation Yrotation
      JOINT Spine2
      {
        OFFSET 0 9.1 -1.3734
        CHANNELS 3 Zrotation Xrotation Yrotation
        JOINT Neck
        {
          OFFSET 0 16.6717 -2.5162
          CHANNELS 3 Zrotation Xrotation Yrotation
          JOINT Head
          {
            OFFSET 0 9.6179 1.685
            CHANNELS 3 Zrotation Xrotation Yrotation
            End Site
            {
              OFFSET 0 0 0
            }
          }
        }
        JOINT LeftShoulder
        {
          OFFSET 4.5704 10.946 -2.628
          CHANNELS 3 Zrotation Xrotation Yrotation
          JOINT LeftArm
          {
            OFFSET 10.5924 -0.5246 -2.2321
            CHANNELS 3 Zrotation Xrotation Yrotation
            JOINT LeftForeArm
            {
              OFFSET 27.8415 -0.0001 0
              CHANNELS 3 Zrotation Xrotation Yrotation
              JOINT LeftHand
              {
                OFFSET 28.3288 0 0
                CHANNELS 3 Zrotation Xrotation Yrotation
                End Site
                {
                  OFFSET 0 0 0
                }
              }
            }
          }
        }
        JOINT RightShoulder
        {
          OFFSET -4.57 10.9462 -2.628
          CHANNELS 3 Zrotation Xrotation Yrotation
          JOINT RightArm
          {
            OFFSET -10.5928 -0.5248 -2.2321
            CHANNELS 3 Zrotation Xrotation Yrotation
            JOINT RightForeArm
            {
              OFFSET -27.8415 0 0
              CHANNELS 3 Zrotation Xrotation Yrotation
              JOINT RightHand
              {
                OFFSET -28.3288 0 0.0001
                CHANNELS 3 Zrotation Xrotation Yrotation
                End Site
                {
                  OFFSET 0 0 0
                }
              }
            }
          }
        }
      }
    }
  }
  JOINT LeftUpLeg
  {
    OFFSET 8.2078 -6.7517 -1.5996
    CHANNELS 3 Zrotation Xrotation Yrotation
    JOINT LeftLeg
    {
      OFFSET 0 -44.3705 0.2846
      CHANNELS 3 Zrotation Xrotation Yrotation
      JOINT LeftFoot
      {
        OFFSET 0 -44.4279 -2.9822
        CHANNELS 3 Zrotation Xrotation Yrotation
        JOINT LeftToeBase
        {
          OFFSET 0 -8.7287 10.7106
          CHANNELS 3 Zrotation Xrotation Yrotation
          End Site
          {
            OFFSET 0 0 0
          }
        }
      }
    }
  }
  JOINT RightUpLeg
  {
    OFFSET -8.2078 -6.7517 -1.5996
    CHANNELS 3 Zrotation Xrotation Yrotation
    JOINT RightLeg
    {
      OFFSET 0 -44.3705 0.2862
      CHANNELS 3 Zrotation Xrotation Yrotation
      JOINT RightFoot
      {
        OFFSET 0 -44.4277 -2.9838
        CHANNELS 3 Zrotation Xrotation Yrotation
        JOINT RightToeBase
        {
          OFFSET 0 -8.7287 10.7106
          CHANNELS 3 Zrotation Xrotation Yrotation
          End Site
          {
            OFFSET 0 0 0
          }
        }
      }
    }
  }
}
MOTION
Frames:	18
Frame Time:	0.0333333
5.39749 98.1497 253.184 1.99293 3.11124 -7.61226 -0.997121 2.82821 -0.123697 -0.566197 5.66082 -0.513765 -0.566197 5.66082 -0.513766 -3.78772 0.760399 3.504 1.68162 -11.3251 2.56059 -17.4826 -0.258635 -14.998 -58.1194 21.4082 3.91924 13.8678 -11.6908 -96.3393 16.4734 -0.878201 1.25212 15.5004 0.476697 11.7682 69.1222 17.941 -15.9479 -21.448 -15.7245 100.443 -7.10877 -7.44714 15.9467 -8.00523 -2.6448 1.70922 -0.399375 26.2521 12.3504 1.98235 -22.2649 -2.71734 -0.133434 -9.40177 0.336312 -6.51922 -25.8493 -7.30848 -19.9029 68.6364 4.28361 0.764814 10.8482 1.63885 -5.375 -11.4644 4.36598 
4.82291 101.039 260.392 -0.160288 4.48895 -9.21205 -0.505226 2.49825 -0.54015 0.759532 4.99254 -1.28606 0.759532 4.99254 -1.28606 -5.67744 1.20506 5.25834 1.5326 -11.0889 3.82616 -16.8116 -0.284443 -15.0791 -58.0005 23.7007 3.6029 13.0892 -13.706 -99.6402 15.1391 -0.962664 -2.11066 13.7636 0.326718 10.3132 70.0747 19.1416 -20.2567 -22.4226 -16.8605 100.608 -4.47073 -8.0736 10.2087 -5.81693 6.2222 4.23727 0.134126 11.751 9.79176 2.76127 -7.1118 -2.48807 1.75702 -19.9089 1.26375 -1.37417 -27.2635 -6.97304 -11.6522 54.9051 -1.63379 1.9208 8.90372 1.52463 2.07361 -13.2348 5.4397 
4.24013 102.8 267.602 -1.75533 6.64082 -10.2645 0.0322139 2.08283 -0.831271 1.84505 4.15113 -1.75773 1.84505 4.15112 -1.75772 -7.14135 0.369079 6.4607 2.12865 -11.4149 4.6253 -16.4592 -0.290826 -15.178 -57.496 26.242 3.53598 13.6515 -15.8107 -102.854 13.679 -1.05118 -5.52205 11.8954 0.243319 9.0364 70.6915 18.2891 -23.9843 -23.8876 -18.1838 101.325 0.856256 -8.53902 4.05081 -2.9628 8.1854 5.9282 0.0155614 8.47939 8.66491 -2.90288 9.71344 -2.43968 5.7128 -30.4693 1.74756 3.62911 -27.2684 -6.2309 -7.82622 39.6067 -0.778502 5.94116 1.17346 1.67551 -2.68903 -3.81059 3.52401 
3.86969 103.541 274.731 -2.22655 8.45037 -10.5611 0.519806 1.79876 -1.01511 2.1171 3.57895 -2.04475 2.1171 3.57895 -2.04475 -7.81319 -1.31406 6.81716 3.16266 -12.14 4.83211 -16.1433 -0.244133 -15.5108 -56.2492 27.7829 2.7586 13.6397 -17.8665 -106.37 10.6696 -0.936692 -9.05659 10.6526 0.190602 8.01309 70.8477 16.1666 -26.5844 -29.5977 -19.1534 101.368 4.69901 -8.9517 -0.680362 -0.795269 5.09082 5.91747 0.324804 17.2962 9.85786 -11.5634 16.4385 -0.364511 10.5949 -27.3693 2.36205 5.53414 -26.576 -6.52409 -3.38275 27.252 3.00708 8.11265 -9.45524 2.58868 -3.25319 10.9561 2.44913 
3.53776 103.394 281.721 -1.57868 8.62385 -10.0056 0.558783 1.8133 -1.12096 1.63993 3.61057 -2.25921 1.63993 3.61057 -2.2592 -7.74635 -2.79051 6.43075 4.01753 -12.9178 4.50632 -15.8132 -0.162341 -16.0185 -55.0893 27.4926 1.21963 12.944 -18.7872 -108.66 7.78143 -1.04247 -13.8253 10.069 0.136626 7.15906 70.9305 13.6633 -28.3517 -34.2528 -19.4198 101.165 4.54899 -9.50477 -4.48289 -1.26325 4.26866 4.90764 1.53671 26.5579 10.5523 -13.2601 16.9991 0.188156 5.33977 -6.726 0.518724 5.38738 -25.942 -7.71134 -0.718994 21.4849 7.43568 5.9727 -16.2404 3.05627 -1.69549 18.6395 2.5125 
3.09798 102.212 288.74 -0.942839 6.55532 -8.95046 0.324485 2.19108 -1.17274 1.09693 4.3711 -2.34715 1.09693 4.37111 -2.34715 -7.14786 -3.21496 5.66836 4.18698 -13.394 3.90733 -15.693 -0.123233 -16.285 -55.6883 25.8462 0.196208 11.8356 -18.1606 -108.674 6.58527 -1.47242 -18.794 9.47322 0.115298 6.54524 70.9118 11.2423 -29.695 -36.1469 -19.2378 101.102 2.8746 -10.0402 -7.55996 -2.26852 5.46156 4.3606 3.79451 37.0473 9.68127 -13.9439 16.6381 0.479757 0.0157976 1.46436 0.138532 4.76179 -25.6578 -8.77248 0.0237605 24.0885 10.5703 0.565393 -18.3675 2.06945 -1.63087 17.5979 3.53478 
2.46508 100.116 295.951 -1.64728 3.20901 -8.25441 0.219245 2.77133 -1.0804 1.02118 5.53325 -2.16051 1.02118 5.53326 -2.16052 -6.13605 -2.69012 4.88229 3.52971 -13.2582 3.37995 -15.3365 -0.252306 -15.8227 -58.5372 23.7069 0.658333 10.9027 -16.5575 -106.629 6.75144 -2.04349 -22.8977 8.98087 0.127578 6.36017 70.2767 9.64808 -30.0347 -36.288 -18.2406 100.573 0.857725 -10.3886 -9.00282 -0.791563 7.01607 5.3738 6.03015 49.31 7.2309 -14.4014 16.5621 0.773422 0.140109 1.33876 -0.0323139 6.11177 -24.6702 -7.56004 -1.00696 31.6738 10.5974 -4.60204 -16.5827 0.51095 -2.38812 8.57019 3.29375 
1.63339 97.5123 302.944 -3.5566 0.822423 -7.8043 0.41394 3.17318 -0.916304 1.41115 6.33549 -1.83643 1.41115 6.33549 -1.83642 -4.84681 -2.0877 4.24215 2.28249 -12.4664 3.13068 -14.8107 -0.483698 -14.8772 -62.566 21.1128 2.30517 10.743 -14.0441 -102.071 8.96211 -2.88308 -25.8941 9.20321 0.128988 6.64562 68.7365 9.42828 -28.5751 -35.5142 -16.1546 99.1354 -1.55721 -10.5956 -8.81712 3.70456 6.02074 6.85227 9.30216 62.7438 2.52052 -14.1869 16.4934 0.921651 0.0123642 -0.327984 -0.0558258 10.9953 -23.2854 -3.30858 -5.28927 40.0075 6.72473 -5.36659 -14.3561 0.596543 -2.03952 -2.68112 1.4105 
0.928689 95.0546 309.191 -4.95302 0.51951 -6.69689 0.704209 3.24686 -0.847203 1.81915 6.48254 -1.62836 1.81915 6.48254 -1.62836 -3.56692 -2.13003 3.7329 0.904642 -11.4668 3.06997 -15.5352 -0.627016 -14.0872 -65.8757 17.5308 4.41931 13.1096 -10.3133 -94.6683 13.7604 -3.8144 -26.2257 10.7264 0.100768 7.44135 66.4374 9.47393 -24.6959 -35.6135 -13.3303 97.5522 -3.48173 -10.741 -8.36188 8.26494 0.691881 6.94137 17.4669 75.6054 -7.3136 -12.8848 15.4394 0.706866 -0.111471 -0.856291 -0.0306651 15.0529 -22.3237 0.00625793 -9.1489 47.4128 3.181 -3.47954 -18.7128 0.623412 -0.874732 -8.82099 -0.133113 
0.689126 93.3925 314.945 -5.45621 1.3928 -5.24643 0.988752 3.20496 -0.777311 1.9791 6.4029 -1.344 1.9791 6.40289 -1.34399 -2.58893 -2.7774 3.21916 -0.130488 -10.9117 2.88807 -17.3401 -0.789801 -13.1067 -67.5624 13.6894 7.33214 17.2954 -6.25352 -88.1969 17.3747 -4.32178 -25.5861 13.3064 0.145247 9.02409 64.6373 8.91439 -18.9969 -37.4746 -10.9229 96.9966 -5.91375 -10.9229 -8.34523 11.0256 -7.33755 5.92002 44.9505 85.036 -36.8635 -10.7245 12.5876 0.156118 -0.0533223 -0.270042 0.0129556 15.7976 -20.8667 -0.0676337 -10.1777 50.9244 1.8315 -2.01746 -23.2336 0.68483 -0.332113 -9.55241 -0.870556 
0.756673 93.1402 320.579 -5.66854 2.72507 -4.84261 1.28856 3.14169 -0.463085 1.88662 6.28754 -0.533615 1.88662 6.28755 -0.533615 -2.02102 -3.49255 2.54588 -0.518215 -11.0077 2.32723 -17.8457 -1.21687 -11.1955 -69.0231 11.7524 12.2616 17.614 -5.21565 -87.0035 17.1478 -4.3588 -25.9407 15.1894 0.405987 11.4107 64.3216 8.95411 -13.2488 -38.3683 -10.6791 97.5623 -8.95293 -11.0305 -6.40315 12.4514 -15.8322 5.71422 122.114 87.2068 -116.419 -8.49859 8.43665 -0.39558 0.0186264 0.300012 0.0528776 15.0871 -18.0204 -1.56719 -10.0279 49.9919 2.67478 -1.92289 -24.86 0.665373 -0.504171 -10.8594 -1.20726 
0.89217 94.4967 326.505 -5.25149 4.46026 -5.96546 1.41322 2.9904 0.240769 1.47084 5.99645 0.954595 1.47084 5.99645 0.954596 -1.79142 -3.91064 1.65459 -0.270201 -11.3068 1.3711 -16.4818 -1.73201 -8.87333 -71.0996 12.8 19.094 12.4156 -8.30949 -89.6169 15.7428 -4.03112 -25.1817 15.3666 0.776158 13.9429 64.5198 10.3867 -8.41116 -36.8269 -12.5792 99.151 -10.0205 -10.9309 -3.70229 12.5168 -23.323 6.99731 85.2468 88.3888 -81.117 -6.89138 4.44583 -0.68819 0.0407457 0.152236 0.0414463 13.6879 -13.9334 -3.37841 -10.5133 44.9184 5.90243 -2.17224 -21.4683 0.688143 -1.0044 -17.1008 -1.2836 
1.15717 97.1132 333.15 -3.9718 6.26215 -7.56995 1.33044 2.75412 1.17775 0.737839 5.52367 2.77369 0.737837 5.52367 2.7737 -1.78257 -4.20625 0.611243 0.307863 -11.1955 0.17349 -14.494 -2.0657 -7.07501 -73.1297 15.7483 26.0472 7.39512 -11.1167 -93.9689 15.2252 -3.59639 -22.7737 14.9213 1.07488 15.9733 63.9384 12.4484 -4.70449 -35.6095 -15.2191 101.205 -8.28026 -10.6463 -2.96293 10.8933 -28.4675 7.75612 4.91698 81.4389 -1.05116 -5.73168 1.65605 -0.762648 0.0851646 -0.665103 -0.0719409 9.88186 -8.66462 -6.73404 -8.16553 36.34 9.84649 -3.61602 -12.8343 0.778996 -2.70375 -25.544 -0.860272 
1.6381 99.9461 340.311 -2.36116 8.16898 -8.36141 1.13026 2.41762 1.98315 -0.0819779 4.83626 4.21837 -0.0819782 4.83626 4.21837 -1.97984 -4.913 -0.462304 0.891821 -10.4814 -1.10972 -12.3115 -2.17615 -6.09792 -74.9748 18.246 31.696 6.47605 -12.8962 -96.229 15.0931 -3.1279 -19.634 15.0571 1.30532 17.5069 62.4676 14.2503 -2.04481 -37.0748 -17.7064 102.817 -5.62777 -10.2846 -2.00785 7.85015 -31.5337 6.24588 -1.05369 68.1033 5.3889 -4.76403 -0.514099 -0.758304 0.0562287 -1.04046 -0.154439 4.71469 -2.55563 -11.8433 -2.95608 25.0709 14.0283 -5.13548 0.251456 1.51171 -1.7179 -30.6703 2.9227 
2.18218 102.396 347.547 -1.15279 10.5989 -8.11816 0.972509 1.98793 2.49111 -0.693015 3.96092 4.98682 -0.693016 3.96093 4.98682 -2.4783 -6.34231 -1.45967 1.38122 -9.52447 -2.37412 -10.5152 -2.18391 -5.61791 -76.1034 19.4822 35.7231 7.62259 -14.2642 -97.1885 13.8357 -2.35403 -15.8385 15.8525 1.53284 18.7915 60.5381 15.6576 -0.211753 -40.5354 -20.2817 103.932 -4.55473 -9.92416 0.637718 4.23449 -33.2853 2.84125 -0.821297 51.4336 6.09088 -4.40862 -3.04359 -0.757889 -0.246707 0.654341 0.0349009 0.84694 2.67593 -16.4263 0.834609 13.8528 14.4131 3.38471 14.6139 1.05556 -7.91454 -33.986 4.33813 
2.56967 103.931 354.676 -0.307603 12.9932 -7.8693 0.607888 1.61125 2.88089 -0.980554 3.19838 5.62843 -0.980554 3.19837 5.62843 -3.23581 -8.06532 -2.29249 1.79501 -8.92608 -3.47978 -10.0478 -2.22646 -5.19299 -75.6717 21.0153 38.081 8.79306 -15.3762 -98.2806 13.3421 -1.59741 -11.0921 16.5847 1.70044 19.6166 58.8741 16.3724 0.744994 -43.3371 -23.3395 105.356 -3.84774 -9.53203 3.69059 1.37934 -33.4594 -0.181007 0.591339 33.291 5.65751 -4.29085 -5.50885 -0.685571 -0.818663 4.40209 0.49993 -0.658325 4.84265 -18.1176 0.440631 9.62739 10.3367 6.51165 21.4047 0.276163 -8.03776 -25.4845 6.2745 
2.77471 104.508 361.877 0.161203 14.2634 -8.04601 0.0218452 1.40796 3.19556 -0.922239 2.79099 6.29729 -0.922238 2.79099 6.29729 -3.85211 -9.06661 -2.82816 2.01697 -9.05091 -4.18566 -10.1853 -2.26582 -4.94939 -74.6377 22.58 38.907 11.0591 -15.8901 -98.7251 15.149 -1.13747 -5.51255 16.7499 1.73972 19.7966 58.2592 16.0818 1.00324 -44.423 -25.9005 106.82 -1.33689 -8.92576 7.01161 0.47958 -29.9646 -1.13143 0.91886 12.7828 5.38469 -2.90274 -3.76432 -0.329527 -1.30881 7.94333 0.870335 -1.71099 3.83682 -16.6633 -3.19508 15.1144 4.73521 5.6596 21.8264 0.0799753 -0.535649 -3.02606 5.39527 
2.98163 103.912 369.18 -0.489813 13.8704 -7.76674 -0.161256 1.42675 3.20076 -0.520531 2.8392 6.36204 -0.520531 2.8392 6.36204 -3.83052 -8.63607 -2.96842 1.82298 -9.70616 -4.31605 -9.82641 -2.22213 -5.1042 -74.1202 22.4111 38.5317 14.0682 -15.4481 -97.5635 17.341 -0.861794 -0.520505 16.5437 1.70346 19.6402 59.0135 15.049 1.13827 -45.9102 -26.1803 106.665 0.501142 -8.32739 10.3133 0.504895 -26.9106 -0.796001 1.29949 0.684421 4.59085 -0.930798 1.03765 -0.135804 -1.24652 7.95095 0.71989 -0.832099 4.96059 -13.8747 -8.71474 21.2915 1.22529 3.682 20.8132 0.220124 -0.675184 4.68698 3.92261 
